<?xml version="1.0" encoding="UTF-8" standalone="no"?>
<svg width="567px" height="313px" viewBox="0 0 567 313" version="1.1" xmlns="http://www.w3.org/2000/svg" xmlns:xlink="http://www.w3.org/1999/xlink">
    <!-- Generator: Sketch 42 (36781) - http://www.bohemiancoding.com/sketch -->
    <title>logo</title>
    <desc>Created with Sketch.</desc>
    <defs></defs>
    <g id="Page-1" stroke="none" stroke-width="1" fill="none" fill-rule="evenodd">
        <g id="logo">
            <path d="M13.69425,281.22895 L13.69425,284.36165 C13.69425,290.29815 12.09335,295.49805 4.82635,295.49805 C-3.70715,295.49805 -3.97795,289.36505 -3.97795,284.36165 L-3.97795,281.22895 L13.69425,281.22895 Z M33.23165,281.22895 L33.23165,284.36165 C33.23165,289.76235 32.16655,293.29795 26.09755,293.29795 C19.83265,293.29795 18.09935,289.69935 18.09935,284.36165 L18.09935,281.22895 L33.23165,281.22895 Z M-8.37715,273.89295 L-8.37715,284.36165 C-8.37715,290.63205 -8.37715,302.83395 4.22765,302.83395 C12.29475,302.83395 15.09365,297.36325 16.02625,292.56665 L16.16465,292.56665 C17.16075,296.16575 20.09755,300.63385 26.63285,300.63385 C36.43325,300.63385 37.63675,291.96795 37.63675,284.36165 L37.63675,273.89295 L-8.37715,273.89295 Z" id="Fill-1" fill="#6A6A6A" transform="translate(14.629800, 288.363450) rotate(-90.000000) translate(-14.629800, -288.363450) "></path>
            <path d="M75.15,284.5313 L29.1421,269.1912 L29.1421,275.6635 L42.806,279.8612 L42.806,295.7366 L29.1421,299.9344 L29.1421,307.5353 L75.15,292.1322 L75.15,284.5313 Z M68.5453,287.796 L68.5453,287.9284 L47.2111,294.4007 L47.2111,281.2607 L68.5453,287.796 Z" id="Fill-3" fill="#6A6A6A" transform="translate(52.146050, 288.363250) rotate(-90.000000) translate(-52.146050, -288.363250) "></path>
            <polygon id="Fill-4" fill="#6A6A6A" transform="translate(93.831050, 288.363250) rotate(-90.000000) translate(-93.831050, -288.363250) " points="116.835 298.5985 80.4256 298.5985 80.4256 298.4661 116.835 280.1951 116.835 272.059 70.8271 272.059 70.8271 278.128 108.3016 278.128 108.3016 278.255 70.8271 297.0666 70.8271 304.6675 116.835 304.6675"></polygon>
            <path d="M121.0209,303.2358 C119.5525,301.3011 116.6217,297.7656 116.6217,292.1629 C116.6217,281.8956 127.2918,279.4257 137.6275,279.4257 C144.0249,279.4257 155.2937,280.7616 155.2937,289.1626 C155.2937,295.2316 149.8295,296.5676 146.092,296.5676 L146.092,305.1015 C153.6299,305.1015 159.2956,300.0341 159.2956,289.7614 C159.2956,275.6942 147.5604,271.6289 136.424,271.6289 C123.4913,271.6289 111.8192,276.7593 111.8192,290.9649 C111.8192,296.9019 113.2876,300.7713 114.75,303.2358 L121.0209,303.2358 Z" id="Fill-5" fill="#6A6A6A" transform="translate(135.557400, 288.365200) rotate(-90.000000) translate(-135.557400, -288.365200) "></path>
            <path d="M195.8791,284.5313 L149.8712,269.1912 L149.8712,275.658 L163.5351,279.8613 L163.5351,295.7312 L149.8712,299.9344 L149.8712,307.5353 L195.8791,292.1262 L195.8791,284.5313 Z M189.2744,287.796 L189.2744,287.9284 L167.9402,294.4007 L167.9402,281.2607 L189.2744,287.796 Z" id="Fill-6" fill="#6A6A6A" transform="translate(172.875150, 288.363250) rotate(-90.000000) translate(-172.875150, -288.363250) "></path>
            <polygon id="Fill-7" fill="#6A6A6A" transform="translate(228.934900, 288.363250) rotate(-90.000000) translate(-228.934900, -288.363250) " points="251.93885 300.96805 214.79825 289.03155 214.79825 288.89905 251.93885 276.89305 251.93885 269.29215 205.93095 284.49395 205.93095 292.09475 251.93885 307.43435"></polygon>
            <path d="M289.9196,284.5253 L243.9117,269.1912 L243.9117,275.6575 L257.5756,279.8613 L257.5756,295.7307 L243.9117,299.9344 L243.9117,307.5353 L289.9196,292.1262 L289.9196,284.5253 Z M283.3149,287.796 L283.3149,287.9284 L261.9807,294.4007 L261.9807,281.2607 L283.3149,287.796 Z" id="Fill-8" fill="#6A6A6A" transform="translate(266.915650, 288.363250) rotate(-90.000000) translate(-266.915650, -288.363250) "></path>
            <polygon id="Fill-9" fill="#6A6A6A" transform="translate(304.460950, 288.363250) rotate(-90.000000) translate(-304.460950, -288.363250) " points="327.4649 276.1933 281.457 276.1933 281.457 300.5332 286.2535 300.5332 286.2535 283.5292 327.4649 283.5292"></polygon>
            <path d="M356.6138,299.5337 C356.9476,297.7314 357.8173,293.1998 357.8173,288.9325 C357.8173,279.3915 353.4811,273.8578 346.0127,273.8578 C331.6751,273.8578 332.3428,295.5318 321.8052,295.5318 C317.1356,295.5318 315.1374,292.0653 315.1374,287.2628 C315.1374,281.8615 318.0048,276.5237 319.2028,274.4566 L312.0682,274.4566 C311.5384,275.8615 310.3349,280.9289 310.3349,286.1287 C310.3349,295.3994 314.1354,302.8678 323.8034,302.8678 C338.2104,302.8678 337.9455,281.1938 347.6135,281.1938 C351.0801,281.1938 353.4121,284.0611 353.4121,288.1324 C353.4121,293.1303 351.2125,297.8639 350.2799,299.5337 L356.6138,299.5337 Z" id="Fill-10" fill="#6A6A6A" transform="translate(334.076100, 288.362800) rotate(-90.000000) translate(-334.076100, -288.362800) "></path>
            <path d="M393.375,284.5313 L347.3671,269.1912 L347.3671,275.658 L361.031,279.8612 L361.031,295.7312 L347.3671,299.9344 L347.3671,307.5353 L393.375,292.1262 L393.375,284.5313 Z M386.7703,287.796 L386.7703,287.9284 L365.4361,294.4007 L365.4361,281.2607 L386.7703,287.796 Z" id="Fill-11" fill="#6A6A6A" transform="translate(370.371050, 288.363250) rotate(-90.000000) translate(-370.371050, -288.363250) "></path>
            <path d="M409.08285,281.22885 L409.08285,284.36155 C409.08285,290.29815 407.48195,295.49745 400.21495,295.49745 C391.68145,295.49745 391.41065,289.36505 391.41065,284.36155 L391.41065,281.22885 L409.08285,281.22885 Z M428.62025,281.22885 L428.62025,284.36155 C428.62025,289.76235 427.55515,293.29785 421.48615,293.29785 C415.22125,293.29785 413.48795,289.69935 413.48795,284.36155 L413.48795,281.22885 L428.62025,281.22885 Z M387.01145,273.89295 L387.01145,284.36155 C387.01145,290.63195 387.01145,302.83395 399.61625,302.83395 C407.68335,302.83395 410.48225,297.36915 411.41485,292.56125 L411.55325,292.56125 C412.54935,296.16575 415.48615,300.63385 422.02145,300.63385 C431.82185,300.63385 433.02535,291.96795 433.02535,284.36155 L433.02535,273.89295 L387.01145,273.89295 Z" id="Fill-12" fill="#6A6A6A" transform="translate(410.018400, 288.363450) rotate(-90.000000) translate(-410.018400, -288.363450) "></path>
            <path d="M446.43405,281.22895 L446.43405,284.36115 C446.43405,290.29815 444.83315,295.49755 437.56615,295.49755 C429.03265,295.49755 428.76185,289.36505 428.76185,284.36115 L428.76185,281.22895 L446.43405,281.22895 Z M465.97145,281.22895 L465.97145,284.36115 C465.97145,289.76235 464.90635,293.29795 458.83735,293.29795 C452.57245,293.29795 450.83915,289.69935 450.83915,284.36115 L450.83915,281.22895 L465.97145,281.22895 Z M424.36265,273.89295 L424.36265,284.36115 C424.36265,290.63205 424.36265,302.83395 436.96745,302.83395 C445.03455,302.83395 447.83345,297.36925 448.76605,292.56665 L448.90445,292.56665 C449.90055,296.16575 452.83735,300.63385 459.37265,300.63385 C469.17305,300.63385 470.37655,291.96795 470.37655,284.36115 L470.37655,273.89295 L424.36265,273.89295 Z" id="Fill-13" fill="#6A6A6A" transform="translate(447.369600, 288.363450) rotate(-90.000000) translate(-447.369600, -288.363450) "></path>
            <polygon id="Fill-14" fill="#6A6A6A" transform="translate(474.383000, 288.363550) rotate(-90.000000) translate(-474.383000, -288.363550) " points="451.37905 284.69555 451.37905 292.03155 497.38695 292.03155 497.38695 284.69555"></polygon>
            <polygon id="Fill-15" fill="#6A6A6A" transform="translate(505.567150, 288.363250) rotate(-90.000000) translate(-505.567150, -288.363250) " points="528.5711 298.5986 492.1617 298.5986 492.1617 298.4661 528.5711 280.1952 528.5711 272.059 482.5632 272.059 482.5632 278.128 520.0377 278.128 520.0377 278.2545 482.5632 297.0667 482.5632 304.6675 528.5711 304.6675"></polygon>
            <path d="M570.2664,284.5254 L524.2585,269.1912 L524.2585,275.6576 L537.9224,279.8613 L537.9224,295.7307 L524.2585,299.9345 L524.2585,307.5353 L570.2664,292.1263 L570.2664,284.5254 Z M563.6617,287.796 L563.6617,287.9225 L542.3275,294.4008 L542.3275,281.2602 L563.6617,287.796 Z" id="Fill-16" fill="#6A6A6A" transform="translate(547.262450, 288.363250) rotate(-90.000000) translate(-547.262450, -288.363250) "></path>
            <path d="M263.6765,188.0578 C263.6537,188.0693 263.5902,188.0807 263.4924,188.0807 L243.2174,188.0807 C242.3482,188.0807 241.8011,188.3629 241.5649,188.9275 C241.3288,189.4915 241.1904,190.5452 241.1448,192.0885 L240.6725,192.0885 L240.6725,180.4282 L241.179,180.4282 C241.2425,182.098 241.4325,183.1864 241.7321,183.6929 C242.0372,184.2058 242.6935,184.4588 243.707,184.4588 L259.3001,184.4588 C259.8359,184.4588 260.2446,184.3785 260.5269,184.2113 C260.8087,184.0446 260.9471,183.6874 260.9471,183.1348 C260.9471,182.7776 260.8662,182.3113 260.6936,181.7294 C260.5383,181.1654 260.3711,180.6356 260.1926,180.1405 L260.6648,180.1405 L263.8149,187.724 L263.8149,187.977 C263.7569,188.0291 263.7112,188.0578 263.6765,188.0578" id="Fill-17" fill="#00512F" transform="translate(252.243700, 186.114500) rotate(-90.000000) translate(-252.243700, -186.114500) "></path>
            <path d="M278.0808,179.795 C279.1578,178.7755 280.3494,178.2631 281.6511,178.2631 C283.1308,178.2631 284.3919,179.0176 285.4227,180.5207 C286.4531,182.0347 286.9715,183.9987 286.9715,186.4111 C286.9715,188.634 286.4818,190.3961 285.509,191.7028 C284.5298,193.0159 283.3958,193.6667 282.106,193.6722 C280.7928,193.6722 279.6127,192.9985 278.5704,191.6626 C277.9712,190.8912 277.292,189.6416 276.5147,187.9197 C275.0979,190.2631 273.8657,191.9389 272.812,192.9469 C271.7643,193.9658 270.532,194.4783 269.1038,194.4783 C267.4856,194.4783 266.1269,193.7243 265.0271,192.2212 C263.9273,190.7354 263.3801,188.7372 263.3801,186.2271 C263.3801,183.9813 263.8866,182.0467 264.8946,180.4339 C265.9136,178.839 267.2555,178.0389 268.9193,178.0389 C270.3475,178.0389 271.6031,178.5974 272.691,179.7141 C273.3993,180.4399 274.2457,181.7123 275.2363,183.5145 C276.4224,181.6949 277.3724,180.4572 278.0808,179.795 M279.0596,189.3881 C279.9232,190.2463 280.9655,190.6724 282.1863,190.6724 C283.2573,190.6724 284.1617,190.2631 284.8984,189.4516 C285.6529,188.6509 286.0269,187.4306 286.0269,185.789 C286.0269,184.5226 285.7045,183.4744 285.0541,182.6509 C284.4033,181.8219 283.6086,181.4072 282.6759,181.4072 C281.6223,181.4072 280.6376,181.8909 279.7332,182.8528 C278.8353,183.8315 277.9831,185.1154 277.1884,186.6988 C277.931,187.9946 278.5531,188.893 279.0596,189.3881 M265.4011,190.033 C266.1155,190.845 267.0193,191.2479 268.0958,191.2479 C269.3166,191.2479 270.3073,190.8163 271.0559,189.9466 C271.8218,189.0944 272.9732,187.3269 274.5106,184.655 C273.9063,183.4689 273.1171,182.6047 272.1557,182.0695 C271.1883,181.5337 270.2552,181.2634 269.3573,181.2634 C267.8195,181.2634 266.5932,181.747 265.6893,182.7084 C264.7736,183.6877 264.3246,184.9313 264.3246,186.4339 C264.3246,188.0179 264.6813,189.2154 265.4011,190.033" id="Fill-18" fill="#00512F" transform="translate(275.175800, 186.258600) rotate(-90.000000) translate(-275.175800, -186.258600) "></path>
            <path d="M307.26,193.1172 C305.2965,194.7696 303.1024,195.5991 300.6726,195.5991 C298.9681,195.5991 297.2348,195.2017 295.4728,194.4184 C293.7107,193.6356 292.1391,192.4897 290.7571,190.9866 C289.1617,189.2359 287.9756,187.0135 287.2042,184.3243 C286.7667,182.8271 286.4268,180.9272 286.1907,178.6412 L286.8644,178.4339 C287.1352,179.8675 287.423,181.0596 287.728,182.0096 C288.2752,183.7196 288.9489,185.0902 289.7491,186.1265 C290.8781,187.5894 292.1446,188.7522 293.5326,189.6219 C294.9375,190.5029 296.1122,191.0555 297.0562,191.2748 L296.6187,190.555 C295.9852,189.5296 295.5536,188.3321 295.3235,186.956 C295.185,186.2362 295.1161,185.5798 295.1161,184.9865 C295.1161,182.6431 295.7898,180.7833 297.1371,179.4067 C298.4958,178.042 300.114,177.3569 301.9912,177.3569 C304.3808,177.3569 306.3502,178.1744 307.899,179.7986 C309.4482,181.4396 310.2255,183.5355 310.2255,186.0863 C310.2255,189.1154 309.2349,191.4588 307.26,193.1172 M297.2924,189.5589 C297.7185,190.5664 298.0757,191.1364 298.3694,191.2748 C298.4785,191.3323 298.8992,191.3785 299.613,191.4187 C300.3442,191.4648 300.9316,191.4817 301.381,191.4817 C303.7185,191.4817 305.613,190.998 307.076,190.0366 C308.5324,189.0692 309.2637,187.6584 309.2637,185.7927 C309.2637,184.4453 308.7631,183.3515 307.7665,182.5047 C306.7649,181.6812 305.2732,181.267 303.2869,181.267 C301.6459,181.267 300.1314,181.6524 298.7379,182.4243 C297.3445,183.2131 296.6475,184.6239 296.6475,186.6623 C296.6475,187.6009 296.8608,188.5682 297.2924,189.5589" id="Fill-19" fill="#00512F" transform="translate(298.208100, 186.478000) rotate(-90.000000) translate(-298.208100, -186.478000) "></path>
            <path d="M324.3354,179.795 C325.4124,178.7756 326.604,178.2631 327.9057,178.2631 C329.3854,178.2631 330.6465,179.0176 331.6773,180.5208 C332.7077,182.0348 333.2261,183.9987 333.2261,186.4111 C333.2261,188.6341 332.7364,190.3961 331.7636,191.7087 C330.7844,193.0159 329.6504,193.6722 328.3606,193.6722 C327.0474,193.6722 325.8673,193.0045 324.825,191.6626 C324.2258,190.8912 323.5466,189.6416 322.7693,187.9197 C321.3525,190.2637 320.1203,191.9389 319.0666,192.9469 C318.0189,193.9659 316.7866,194.4729 315.3584,194.4783 C313.7402,194.4783 312.3815,193.7243 311.2817,192.2212 C310.1819,190.7354 309.6347,188.7377 309.6347,186.2271 C309.6347,183.9814 310.1412,182.0521 311.1492,180.4339 C312.1682,178.8336 313.5101,178.0389 315.1739,178.0389 C316.6021,178.0389 317.8577,178.5975 318.9456,179.7141 C319.6539,180.4399 320.5003,181.7123 321.4909,183.5146 C322.677,181.6955 323.627,180.4573 324.3354,179.795 M325.3142,189.3881 C326.1778,190.2463 327.2201,190.6724 328.4409,190.6724 C329.5119,190.6724 330.4163,190.2637 331.153,189.4516 C331.9075,188.6509 332.2815,187.4306 332.2815,185.7891 C332.2815,184.5226 331.9591,183.4744 331.3087,182.6509 C330.6579,181.822 329.8632,181.4072 328.9305,181.4072 C327.8769,181.4072 326.8922,181.8909 325.9878,182.8528 C325.0899,183.8316 324.2377,185.1154 323.443,186.6989 C324.1856,187.9946 324.8077,188.893 325.3142,189.3881 M311.6557,190.033 C312.3701,190.8451 313.2739,191.2538 314.3504,191.2538 C315.5712,191.2538 316.5619,190.8163 317.3105,189.9467 C318.0764,189.0944 319.2278,187.3269 320.7652,184.655 C320.1609,183.4689 319.3717,182.6048 318.4103,182.0695 C317.4429,181.5337 316.5098,181.2634 315.6119,181.2634 C314.0741,181.2634 312.8478,181.7471 311.9439,182.7084 C311.0282,183.6877 310.5792,184.9314 310.5792,186.4345 C310.5792,188.0179 310.9359,189.2155 311.6557,190.033" id="Fill-20" fill="#00512F" transform="translate(321.430400, 186.258600) rotate(-90.000000) translate(-321.430400, -186.258600) "></path>
            <path d="M273.4391,111.5602 L273.4391,113.0975 C269.2413,113.7945 266.0397,114.7271 263.7771,115.9881 C259.6884,118.1302 257.65,121.2971 257.5925,125.5356 C257.5925,127.8677 258.3123,129.6873 259.8556,131.0346 C261.4043,132.3874 263.3911,133.0382 265.8209,133.0844 C267.3642,133.0844 268.8554,132.7103 270.2895,131.9211 C271.7292,131.1785 273.1053,129.8252 274.4873,127.8215 L278.0229,122.6043 C280.4526,118.781 282.8769,115.9881 285.3643,114.1685 C287.7945,112.401 290.6678,111.514 294.0882,111.4679 C298.1764,111.4679 301.5447,112.6773 304.2454,115.1934 C306.8999,117.6639 308.2244,120.7847 308.2244,124.5563 C308.2244,126.1919 307.8905,127.9594 307.1191,129.9636 C306.3993,131.9211 306.0709,133.0382 306.0134,133.3205 C306.0134,133.8791 306.0709,134.2531 306.2897,134.5294 C306.4569,134.7601 306.7332,134.9501 307.1767,135.1803 L307.1767,136.3034 L291.7676,136.6259 L291.7676,135.1803 C295.3031,134.5756 298.0613,133.7407 300.1056,132.6642 C303.7503,130.7583 305.5759,128.0056 305.6274,124.3262 C305.6274,122.1841 304.856,120.5024 303.2552,119.2012 C301.706,117.9923 299.8864,117.3876 297.6754,117.3355 C294.307,117.3355 291.3301,119.4835 288.6235,123.7676 L284.702,129.9174 C280.4526,136.5336 275.4834,139.8389 269.794,139.8389 C265.487,139.8389 261.9515,138.4916 259.1358,135.6927 C256.3776,132.9921 254.9956,129.405 254.9956,124.9309 C254.9956,123.0706 255.3294,120.9692 256.1013,118.5965 C256.8211,116.2645 257.149,114.8655 257.2066,114.3987 C257.2066,114.0306 257.0399,113.7022 256.7115,113.4259 C256.4292,113.1436 256.1013,112.9596 255.6057,112.7696 L255.6057,111.5602 L273.4391,111.5602 Z" id="Fill-21" fill="#00512F" transform="translate(281.610000, 125.653400) rotate(-90.000000) translate(-281.610000, -125.653400) "></path>
            <path d="M318.5329,113.6131 C320.7385,116.4576 323.7209,122.1411 327.5332,130.7148 L332.2261,130.7148 C335.9804,130.7148 338.5773,130.433 340.0631,129.7821 C342.4928,128.7572 343.7077,126.5631 343.7653,123.2121 C343.7653,121.6286 343.3223,120.1369 342.3257,118.6919 C341.3355,117.2925 340.011,116.596 338.2435,116.5498 C337.8,116.5498 337.0861,116.596 335.9804,116.78 C334.9843,116.9184 334.322,116.97 333.9936,117.0161 C331.9498,117.0161 330.5156,116.4576 329.6867,115.2888 C329.2432,114.638 329.0244,113.8953 328.9669,112.9622 C328.9669,111.5633 329.462,110.4923 330.5677,109.7437 C331.673,109.0006 332.8883,108.6265 334.2124,108.6265 C336.7518,108.6265 339.4008,109.9337 342.2741,112.6343 C345.0898,115.3349 346.4719,119.2505 346.5235,124.4672 C346.5235,130.4786 344.2088,134.5325 339.5675,136.7207 C337.0281,137.8438 333.3313,138.4019 328.4718,138.4481 L306.3315,138.4481 C304.2296,138.4481 302.7959,138.5403 301.9149,138.8226 C300.4753,139.1912 299.7609,140.0315 299.7609,141.3387 C299.7609,142.0357 299.8706,142.5943 300.1469,143.1067 C300.3657,143.573 300.9763,144.3618 302.024,145.531 L299.1508,145.531 C297.7171,144.5518 296.5598,143.4807 295.6212,142.312 C294.2391,140.5901 293.5769,138.8226 293.5193,137.003 C293.5193,134.9071 294.2907,133.3697 295.9491,132.3905 C297.5499,131.4579 299.4846,130.9454 301.7477,130.8532 C299.318,128.5211 297.5499,126.517 296.3351,124.7956 C294.3483,122.0027 293.3522,119.3422 293.3522,116.7339 C293.3522,114.0794 294.4579,111.7994 296.6689,109.7898 C298.8745,107.8378 301.6902,106.8585 305.1682,106.8585 C310.4712,106.8585 314.8878,109.0928 318.5329,113.6131 L318.5329,113.6131 Z M324.7691,130.7148 C323.393,127.1738 321.8437,124.237 320.1338,121.8588 C316.8745,117.3907 313.1778,115.1504 308.98,115.1504 C305.6692,115.1504 303.2389,116.0835 301.5806,117.9488 C300.5904,119.1582 300.0894,120.5115 300.0318,122.0027 C300.0318,124.047 300.6995,126.0105 302.0761,127.8703 C303.4061,129.736 305.1161,130.6632 307.27,130.7148 L324.7691,130.7148 Z" id="Fill-22" fill="#00512F" transform="translate(319.937850, 126.194750) rotate(-90.000000) translate(-319.937850, -126.194750) "></path>
            <path d="M323.7712,108.9515 C322.9998,111.0935 322.6138,112.9592 322.5563,114.5888 C322.5563,118.9245 324.491,122.1376 328.3549,124.2335 C332.2183,126.33 336.8537,127.3548 342.376,127.401 C347.8462,127.401 352.8674,126.4217 357.5603,124.4697 C362.2016,122.5122 364.5163,119.3393 364.5738,114.9629 C364.5738,112.7747 363.8024,110.6272 362.1441,108.4851 C360.6008,106.3892 358.6085,105.3638 356.0691,105.3182 L327.9114,105.3182 C326.0343,105.6 324.6522,106.8094 323.7712,108.9515 L323.7712,108.9515 Z M390.083,91.2912 L391.9601,91.2912 C392.8987,94.8322 393.9464,98.0051 395.1613,100.8441 C396.3246,103.6425 396.8718,105.1337 396.9293,105.41 C396.7106,105.4561 396.4858,105.4561 396.2671,105.5022 L362.6391,105.5022 C364.4067,106.297 366.065,107.5059 367.6659,109.1414 C370.424,111.9805 371.8061,115.2392 371.8061,119.0168 C371.8061,123.5832 369.543,127.4466 364.9598,130.7118 C360.4336,133.9249 354.5258,135.5083 347.1839,135.5545 C339.3931,135.5545 332.7139,133.4585 327.1395,129.2662 C321.6177,125.0744 318.8595,119.5754 318.802,112.7291 C318.802,109.2799 319.5734,105.9224 321.2318,102.5714 C322.8326,99.2601 324.4334,97.631 326.0918,97.5849 L384.4511,97.5849 C386.5475,97.5849 388.0387,97.3488 388.9772,96.8363 C389.8642,96.3755 390.3018,95.2528 390.3593,93.3926 L390.083,91.2912 Z" id="Fill-23" fill="#00512F" transform="translate(357.865650, 113.422850) rotate(-90.000000) translate(-357.865650, -113.422850) "></path>
            <path d="M511.86375,113.51115 C514.07475,116.35015 517.05165,122.03915 520.86405,130.61285 L525.55685,130.61285 C529.31115,130.61285 531.90815,130.33105 533.39935,129.68025 C535.82365,128.65535 537.03855,126.46115 537.09605,123.11025 C537.09605,121.52675 536.65255,120.03505 535.66245,118.58995 C534.66625,117.19055 533.34175,116.49405 531.57425,116.44795 C531.13075,116.44795 530.41645,116.49405 529.31115,116.67805 C528.31505,116.81655 527.65275,116.86215 527.32435,116.91425 C525.28055,116.91425 523.84645,116.35015 523.01745,115.18685 C522.57395,114.53605 522.35525,113.78745 522.29765,112.86035 C522.29765,111.46135 522.79865,110.39035 523.89845,109.64175 C525.00375,108.89865 526.21915,108.52465 527.54315,108.52465 C530.08255,108.52465 532.73165,109.83175 535.60485,112.53235 C538.42055,115.23305 539.80265,119.14855 539.85425,124.36525 C539.85425,130.37675 537.53955,134.43065 532.89825,136.61885 C530.35885,137.74195 526.66215,138.30005 521.80255,138.34615 L499.66225,138.34615 C497.56035,138.34615 496.12625,138.43845 495.24575,138.71475 C493.80605,139.08925 493.09175,139.92965 493.09175,141.23135 C493.09175,141.93375 493.20135,142.49235 493.47765,143.00475 C493.69645,143.47115 494.30715,144.25985 495.35485,145.42315 L492.48155,145.42315 C491.04795,144.44985 489.89055,143.37885 488.95195,142.21005 C487.56995,140.48825 486.90765,138.71475 486.85015,136.90105 C486.85015,134.80515 487.62745,133.26785 489.27995,132.28855 C490.88075,131.35595 492.81545,130.84355 495.07855,130.75125 C492.64875,128.41915 490.88075,126.41555 489.66585,124.69365 C487.67905,121.89535 486.68895,119.24035 486.68895,116.63195 C486.68895,113.97745 487.78875,111.69155 489.99975,109.68795 C492.20525,107.72985 495.02095,106.75655 498.49895,106.75655 C503.80205,106.75655 508.21855,108.99095 511.86375,113.51115 L511.86375,113.51115 Z M518.09985,130.61285 C516.72375,127.07185 515.17455,124.13505 513.46455,121.75695 C510.20535,117.28285 506.50855,115.04845 502.31085,115.04845 C498.99995,115.04845 496.56975,115.98165 494.91135,117.84685 C493.92115,119.05625 493.42015,120.40365 493.36805,121.89535 C493.36805,123.94505 494.03035,125.90265 495.40695,127.76835 C496.73695,129.62865 498.44685,130.56125 500.60085,130.61285 L518.09985,130.61285 Z" id="Fill-24" fill="#00512F" transform="translate(513.271600, 126.089850) rotate(-90.000000) translate(-513.271600, -126.089850) "></path>
            <path d="M220.4238,113.5081 C222.6348,116.3467 225.6117,122.0362 229.4241,130.6098 L234.1169,130.6098 C237.8712,130.6098 240.4682,130.3281 241.9594,129.6772 C244.3837,128.6523 245.5986,126.4582 245.6561,123.1072 C245.6561,121.5237 245.2126,120.032 244.2225,118.587 C243.2263,117.1875 241.9018,116.491 240.1343,116.4449 C239.6908,116.4449 238.9765,116.491 237.8712,116.6751 C236.8751,116.8135 236.2128,116.8651 235.8844,116.9112 C233.8406,116.9112 232.4065,116.3467 231.5775,115.1839 C231.134,114.533 230.9153,113.7845 230.8577,112.8573 C230.8577,111.4584 231.3587,110.3873 232.4585,109.6388 C233.5638,108.8956 234.7792,108.5216 236.1032,108.5216 C238.6426,108.5216 241.2917,109.8288 244.1649,112.5294 C246.9806,115.23 248.3627,119.1455 248.4143,124.3623 C248.4143,130.3737 246.0996,134.4276 241.4583,136.6158 C238.9189,137.7389 235.2222,138.297 230.3626,138.3431 L208.2223,138.3431 C206.1204,138.3431 204.6863,138.4354 203.8058,138.7117 C202.3661,139.0863 201.6518,139.9266 201.6518,141.2283 C201.6518,141.9308 201.7614,142.4893 202.0377,143.0018 C202.2565,143.4681 202.8672,144.2569 203.9149,145.4261 L201.0416,145.4261 C199.608,144.4469 198.4506,143.3758 197.512,142.2071 C196.13,140.4852 195.4677,138.7117 195.4102,136.8981 C195.4102,134.8022 196.1875,133.2648 197.84,132.2856 C199.4408,131.353 201.3755,130.8405 203.6386,130.7482 C201.2088,128.4162 199.4408,126.412 198.2259,124.6907 C196.2391,121.8923 195.249,119.2373 195.249,116.629 C195.249,113.9745 196.3488,111.6885 198.5598,109.6849 C200.7653,107.7269 203.581,106.7536 207.059,106.7536 C212.3621,106.7536 216.7786,108.9879 220.4238,113.5081 L220.4238,113.5081 Z M226.6599,130.6098 C225.2838,127.0688 223.7346,124.1321 222.0246,121.7539 C218.7654,117.2798 215.0686,115.0455 210.8709,115.0455 C207.56,115.0455 205.1298,115.9786 203.4714,117.8438 C202.4812,119.0533 201.9802,120.4066 201.9281,121.8923 C201.9281,123.9421 202.5904,125.8996 203.967,127.7653 C205.297,129.6256 207.0069,130.5582 209.1609,130.6098 L226.6599,130.6098 Z" id="Fill-25" fill="#00512F" transform="translate(221.831650, 126.089850) rotate(-90.000000) translate(-221.831650, -126.089850) "></path>
            <path d="M213.93935,101.92995 C214.27325,104.82055 214.93545,106.77265 215.98365,107.79755 C217.03135,108.82835 219.07575,109.33485 222.16775,109.33485 L276.11095,109.33485 C278.54075,109.33485 280.19905,109.19695 281.13765,108.82835 C282.68095,108.21775 283.45235,106.96265 283.45235,105.05075 C283.45235,104.63055 283.40075,104.16425 283.29115,103.60565 C283.17605,103.13935 283.00935,102.53465 282.79055,101.69975 L284.61565,101.69975 C285.94015,105.89165 287.70765,110.92425 289.91325,116.83795 C289.91325,117.02795 289.80405,117.12025 289.58485,117.21205 C289.36065,117.25815 288.92305,117.25815 288.14575,117.30435 L221.94305,117.30435 C218.74185,117.30435 216.69755,117.77065 215.70685,118.70375 C214.82035,119.63635 214.27325,121.54825 213.93935,124.47905 L212.39065,124.47905 L212.39065,101.92995 L213.93935,101.92995 Z" id="Fill-26" fill="#00512F" transform="translate(251.151950, 113.089400) rotate(-90.000000) translate(-251.151950, -113.089400) "></path>
            <path d="M366.8184,109.3621 C366.047,111.5042 365.661,113.3699 365.6035,114.9995 C365.6035,119.3352 367.5382,122.5483 371.4021,124.6442 C375.2655,126.7406 379.9068,127.7655 385.4291,127.8116 C390.8934,127.8116 395.9146,126.8324 400.6075,124.8803 C405.2488,122.9228 407.5694,119.7499 407.621,115.3735 C407.621,113.1854 406.8496,111.0378 405.1913,108.8958 C403.648,106.7999 401.6557,105.7745 399.1218,105.7289 L370.9586,105.7289 C369.0815,106.0106 367.6994,107.2201 366.8184,109.3621 L366.8184,109.3621 Z M433.1302,91.7018 L435.0073,91.7018 C435.9459,95.2428 436.9936,98.4157 438.2085,101.2543 C439.3718,104.0531 439.9249,105.5443 439.9765,105.8206 C439.7578,105.8668 439.533,105.8668 439.3143,105.9129 L405.6863,105.9129 C407.4543,106.7076 409.1127,107.9165 410.7131,109.5461 C413.4772,112.3906 414.8533,115.6558 414.8533,119.4275 C414.8533,123.9938 412.5902,127.8573 408.007,131.1224 C403.4808,134.3355 397.573,135.919 390.2311,135.9651 C382.4462,135.9651 375.7611,133.8692 370.1867,129.6769 C364.6649,125.485 361.9067,119.986 361.8492,113.1397 C361.8492,109.6905 362.6206,106.3331 364.279,102.9821 C365.8798,99.6708 367.4806,98.0417 369.139,97.9955 L427.4983,97.9955 C429.5947,97.9955 431.0859,97.7594 432.0244,97.247 C432.9114,96.7802 433.349,95.6635 433.4065,93.8032 L433.1302,91.7018 Z" id="Fill-27" fill="#00512F" transform="translate(400.912850, 113.833450) rotate(-90.000000) translate(-400.912850, -113.833450) "></path>
            <path d="M446.6369,103.6198 C446.9708,105.808 447.5755,107.3453 448.5716,108.2323 C449.5623,109.1188 451.7157,109.5395 455.1416,109.5851 L483.1326,109.5851 C485.4528,109.5851 487.1112,109.3951 488.1018,109.0265 C489.4839,108.4625 490.1461,107.2531 490.2037,105.3878 C490.2037,105.111 490.2037,104.8293 490.1461,104.5068 C490.1461,104.2245 490.0886,103.8961 489.979,103.4358 L491.9137,103.4358 C492.3512,104.6909 493.4569,107.6737 495.3341,112.4703 L497.0441,116.8521 C497.0441,117.0367 496.9925,117.1344 496.7737,117.2207 C496.6065,117.2723 496.3823,117.2723 495.9964,117.3184 L487.8831,117.3184 C491.0272,120.1575 493.1806,122.3973 494.3955,124.0269 C496.1635,126.4512 497.0441,128.9673 497.1021,131.5761 C497.1021,133.672 496.3823,135.5834 494.9482,137.3514 C492.19,140.7084 487.2208,142.3841 479.9885,142.3841 L454.203,142.3841 C451.5485,142.3841 449.6714,142.8043 448.4625,143.7374 C447.2992,144.6239 446.6885,146.1096 446.6369,148.2517 L445.0882,148.2517 L445.0882,128.3571 L446.6369,128.3571 C446.9708,130.5969 447.6851,132.1803 448.8479,133.1135 C449.9477,133.9945 452.378,134.4147 456.1898,134.4608 L479.7638,134.4608 C482.9139,134.4608 485.5049,133.9945 487.6067,132.9696 C489.7027,131.9904 490.7504,130.1767 490.7504,127.4761 C490.7504,125.6565 490.0365,123.7967 488.5453,121.8848 C487.7159,120.8599 486.3338,119.5066 484.3475,117.7852 L453.4316,117.7852 C450.7771,117.7852 449.0091,118.2516 448.0706,119.2764 C447.1895,120.2552 446.7465,121.7925 446.6369,123.9807 L445.0882,123.9807 L445.0882,103.6198 L446.6369,103.6198 Z" id="Fill-28" fill="#00512F" transform="translate(471.095150, 125.843750) rotate(-90.000000) translate(-471.095150, -125.843750) "></path>
            <path d="M120.39775,113.58595 C122.60875,116.42495 125.58575,122.11395 129.39805,130.68765 L134.09095,130.68765 C137.84525,130.68765 140.44215,130.40585 141.93335,129.75495 C144.35775,128.73005 145.57855,126.53595 145.63015,123.18495 C145.63015,121.60145 145.18715,120.10975 144.19645,118.66475 C143.20035,117.26535 141.87585,116.56885 140.10835,116.52265 C139.66485,116.52265 138.95095,116.56885 137.84525,116.75285 C136.84915,116.89125 136.18685,116.94285 135.85845,116.98895 C133.81465,116.98895 132.38045,116.42495 131.55155,115.26165 C131.10805,114.61085 130.88925,113.86225 130.83175,112.93505 C130.83175,111.53615 131.32685,110.46515 132.43255,109.71655 C133.53785,108.97345 134.75315,108.59935 136.07725,108.59935 C138.61665,108.59935 141.27115,109.90655 144.13895,112.60715 C146.95465,115.30775 148.33675,119.22335 148.38835,124.44005 C148.38835,130.45195 146.07365,134.50535 141.43235,136.69355 C138.89295,137.81665 135.19615,138.37525 130.33665,138.42095 L108.19635,138.42095 C106.09995,138.42095 104.66075,138.51315 103.77975,138.78945 C102.34565,139.16405 101.62585,140.00435 101.62585,141.30605 C101.62585,142.00855 101.73545,142.56715 102.01175,143.07955 C102.23055,143.54585 102.84115,144.33465 103.88895,145.50385 L101.01565,145.50385 C99.58195,144.52465 98.42465,143.45355 97.48605,142.28485 C96.10395,140.56295 95.44175,138.78945 95.38415,136.97585 C95.38415,134.87995 96.16155,133.34255 97.81395,132.36335 C99.41485,131.43075 101.34945,130.91825 103.61255,130.82605 C101.18285,128.49395 99.41485,126.49035 98.19995,124.76845 C96.21315,121.97005 95.22295,119.31505 95.22295,116.70675 C95.22295,114.05225 96.32275,111.76635 98.53375,109.76265 C100.73935,107.81065 103.55505,106.83135 107.03845,106.83135 C112.33605,106.83135 116.75265,109.06565 120.39775,113.58595 L120.39775,113.58595 Z M126.63395,130.68765 C125.25785,127.14665 123.70855,124.20985 121.99865,121.83165 C118.73945,117.35755 115.04265,115.12325 110.84485,115.12325 C107.53405,115.12325 105.10375,116.05635 103.44545,117.92165 C102.45525,119.13105 101.95425,120.48435 101.90265,121.97005 C101.90265,124.01985 102.56435,125.97735 103.94645,127.84315 C105.27095,129.70335 106.98095,130.63605 109.13485,130.68765 L126.63395,130.68765 Z" id="Fill-29" fill="#00512F" transform="translate(121.805650, 126.167600) rotate(-90.000000) translate(-121.805650, -126.167600) "></path>
            <path d="M37.71165,86.51605 C38.15515,90.01135 38.86895,92.24565 39.92265,93.31675 C40.97085,94.34165 43.61935,94.85405 47.92685,94.90565 L98.22485,94.90565 C102.20385,94.90565 104.79485,94.39325 106.06725,93.36835 C107.28215,92.34345 108.05405,90.05755 108.38795,86.51605 L110.48385,86.51605 L110.48385,113.49305 L108.38795,113.49305 C108.16325,109.99825 107.50145,107.67165 106.34355,106.41065 C105.23835,105.24735 102.80805,104.68875 98.99625,104.64315 L44.66755,104.64315 C43.45275,104.64315 42.46205,104.78105 41.68465,105.15555 C41.02245,105.52415 40.58485,106.31835 40.36015,107.52775 C40.25105,108.23025 40.19345,108.97285 40.14145,109.76755 C40.14145,110.55685 40.14145,112.04805 40.08385,114.23625 C40.08385,122.71805 40.91325,128.44725 42.57165,131.43015 C44.22405,134.41305 48.42185,137.30365 55.26825,140.09605 L55.26825,142.52045 L35.66735,137.86225 L35.66735,86.51605 L37.71165,86.51605 Z" id="Fill-30" fill="#00512F" transform="translate(73.075600, 114.518250) rotate(-90.000000) translate(-73.075600, -114.518250) "></path>
            <path d="M399.0478,101.9864 C399.3762,105.2972 400.038,107.3931 401.0346,108.2801 C402.0248,109.1149 404.6793,109.5351 408.9867,109.5813 L435.3248,109.5813 C437.697,109.5813 439.3554,109.4434 440.294,109.1611 C441.7852,108.6948 442.4995,107.7155 442.5571,106.2303 C442.5571,105.9019 442.5571,105.5735 442.4475,105.2054 C442.3899,104.9231 442.1136,103.99 441.561,102.4065 L443.2709,102.4065 L444.0483,104.4107 C446.1442,109.8174 447.6875,113.5891 448.7932,115.7772 C449.2362,116.6181 449.4555,117.1767 449.4555,117.4584 L448.6261,117.5507 L408.9867,117.5507 C404.7889,117.5507 402.192,117.9709 401.0922,118.8063 C400.038,119.6466 399.3762,121.5525 399.0478,124.6337 L397.4991,124.6337 L397.4991,101.9864 L399.0478,101.9864 Z M472.8683,109.3511 C473.9735,110.2782 474.5266,111.4009 474.5782,112.7943 C474.5782,114.1015 474.0256,115.2187 472.8683,116.1974 C471.7625,117.1305 470.438,117.5968 468.7796,117.643 C467.2368,117.643 465.9123,117.1767 464.6974,116.1974 C463.5917,115.2648 463.039,114.1476 463.039,112.7943 C463.039,111.447 463.5917,110.3298 464.6974,109.3511 C465.8027,108.4185 467.1272,107.9517 468.7796,107.9517 C470.3289,107.9517 471.6534,108.4185 472.8683,109.3511 L472.8683,109.3511 Z" id="Fill-31" fill="#00512F" transform="translate(436.038650, 113.310050) rotate(-90.000000) translate(-436.038650, -113.310050) "></path>
            <path d="M228.25215,108.71725 C226.46125,106.47155 227.54965,100.30435 220.54165,100.30435 C215.59575,100.30435 171.74665,121.89795 169.36255,122.04185 L169.36255,123.08955 C173.81385,124.24735 207.18285,140.26665 212.82565,140.26665 C223.34595,140.26665 226.42655,130.97865 228.25215,129.40065 L228.25215,162.00365 C225.06185,159.90225 227.26735,151.48935 206.16935,143.07095 C204.83335,142.54655 181.45485,132.65985 180.57975,132.20495 C177.66635,130.66165 130.76545,111.34895 128.69825,110.11665 C129.57335,109.55815 219.13675,69.45195 219.13675,69.45195 C225.02765,65.77255 227.96985,55.07965 228.25215,54.72845 L228.25215,108.71725 Z" id="Fill-32" fill="#00512F" transform="translate(178.475200, 108.366050) rotate(-90.000000) translate(-178.475200, -108.366050) "></path>
            <path d="M393.2758,113.8922 C393.1463,55.6857 381.0396,2.5854 371.9465,-32.2956 C349.5715,-118.129 330.2559,-162.2043 286.76,-164.8811 C286.3721,-164.9034 285.5511,-164.9089 285.1463,-164.9089 C249.86,-164.9089 229.6444,-145.2613 210.5703,-92.4308 C203.2885,-72.2713 196.8608,-53.8213 191.9179,-32.2168 C180.8401,16.1883 174.9412,67.1743 174.8629,115.2306 C175.1496,162.4436 181.0484,212.4906 191.9179,259.9674 C196.8722,281.6171 203.2939,300.0443 210.5703,320.1761 C229.6444,373.0066 249.8545,392.6541 285.1463,392.6541 C285.5565,392.6541 286.389,392.6481 286.8052,392.6318 C330.2782,389.8815 349.5944,345.8405 371.9465,260.0969 C381.0396,225.2104 393.1463,172.1041 393.2758,113.8922 L393.2758,113.8922 Z M170.803,115.2475 L170.803,115.2361 C170.8759,66.8817 176.8085,15.5751 187.9592,-33.128 C192.9527,-54.9519 199.4196,-73.5254 206.7466,-93.8139 C226.5291,-148.6014 247.7794,-168.9688 285.1463,-168.9688 C285.6071,-168.9688 286.5293,-168.9633 286.9907,-168.941 C332.9888,-166.1069 353.0133,-121.0474 375.8829,-33.319 C385.032,1.7758 397.2067,55.2135 397.3356,113.8922 C397.2067,172.5764 385.032,226.0255 375.8829,261.1203 C346.923,372.1965 322.3048,394.4588 287.013,396.6917 C286.5125,396.7085 285.6017,396.714 285.1463,396.714 C247.774,396.714 226.5291,376.3466 206.7466,321.5591 C199.425,301.2984 192.9582,282.7472 187.9592,260.8787 C177.0163,213.1146 171.0838,162.7581 170.803,115.2529 L170.803,115.2475 Z" id="Fill-33" fill="#00512F" transform="translate(284.069300, 113.872600) rotate(-90.000000) translate(-284.069300, -113.872600) "></path>
            <path d="M386.30295,113.77405 C386.20725,64.24985 376.38945,17.75675 365.78925,-25.10365 C344.80335,-110.02035 326.80875,-153.69625 286.72635,-156.77785 L286.42275,-156.78925 C285.86025,-156.80615 285.37105,-156.82295 284.76385,-156.82295 C252.99225,-156.82295 233.86755,-136.56235 214.19775,-82.06155 C207.66885,-63.99995 203.06925,-46.03905 198.16555,-24.62545 C187.32975,22.70555 181.83575,69.73845 181.83575,115.16305 C182.05505,159.68775 187.54905,205.77605 198.16555,252.14565 C203.06925,273.55875 207.66885,291.51965 214.19775,309.58715 C233.86755,364.08205 252.99225,384.34275 284.76385,384.34275 C285.48365,384.34275 286.19755,384.33135 286.90645,384.30355 C306.80695,382.74585 321.97295,370.98195 334.63085,347.29085 C346.63635,324.82615 355.76855,293.22365 365.78925,252.67995 C376.38945,209.80815 386.20725,163.30365 386.30295,113.77405 M180.63225,115.16845 C180.63225,69.64815 186.13725,22.52545 196.99585,-24.89585 C201.90495,-46.35405 206.51595,-64.35415 213.06165,-82.46635 C232.94535,-137.54655 252.37965,-158.02595 284.76385,-158.02595 C285.38795,-158.02595 285.88305,-158.00965 286.46195,-157.99225 L286.78835,-157.98135 C327.63565,-154.84365 345.83215,-110.86955 366.95905,-25.39585 C377.57555,17.54335 387.41075,64.12085 387.50645,113.77405 C387.41075,163.43305 377.57555,210.02145 366.95905,252.97215 C356.91595,293.60015 347.75545,325.28155 335.69345,347.85885 C322.81635,371.94925 307.34125,383.91515 286.98485,385.50705 L286.96245,385.50705 C286.23725,385.53475 285.50055,385.54615 284.76385,385.54615 C252.37965,385.54615 232.94535,365.07165 213.06165,309.99195 C206.51595,291.87385 201.90495,273.86835 196.99585,252.41555 C186.35695,205.95615 180.85155,159.78345 180.63225,115.16845" id="Fill-34" fill="#00512F" transform="translate(284.069350, 113.760100) rotate(-90.000000) translate(-284.069350, -113.760100) "></path>
        </g>
    </g>
</svg>